<svg xmlns="http://www.w3.org/2000/svg" xmlns:xlink="http://www.w3.org/1999/xlink" zoomAndPan="magnify" preserveAspectRatio="xMidYMid meet" version="1.0" viewBox="35.65 138.92 291.18 93.31"><defs><g/></defs><g fill="#000000" fill-opacity="1"><g transform="translate(33.764342, 209.624986)"><g><path d="M 3.046875 10.359375 L 14.96875 4.515625 C 17.15625 8.140625 20.960938 9.953125 26.390625 9.953125 C 28.910156 9.953125 31.253906 9.140625 33.421875 7.515625 C 35.585938 5.898438 36.671875 3.421875 36.671875 0.078125 L 36.671875 -3.046875 C 34.097656 -0.191406 29.492188 1.234375 22.859375 1.234375 C 16.773438 1.234375 11.757812 -0.914062 7.8125 -5.21875 C 3.863281 -9.519531 1.890625 -14.796875 1.890625 -21.046875 C 1.890625 -27.296875 3.863281 -32.582031 7.8125 -36.90625 C 11.757812 -41.238281 16.773438 -43.40625 22.859375 -43.40625 C 28.285156 -43.40625 32.804688 -41.734375 36.421875 -38.390625 L 36.671875 -38.390625 L 36.671875 -42.171875 L 51.21875 -42.171875 L 51.21875 1.15625 C 51.21875 8 48.941406 13.285156 44.390625 17.015625 C 39.847656 20.742188 33.847656 22.609375 26.390625 22.609375 C 14.328125 22.609375 6.546875 18.523438 3.046875 10.359375 Z M 20.171875 -28.203125 C 18.285156 -26.335938 17.34375 -23.953125 17.34375 -21.046875 C 17.34375 -18.140625 18.25 -15.769531 20.0625 -13.9375 C 21.875 -12.101562 24.257812 -11.1875 27.21875 -11.1875 C 30.0625 -11.1875 32.398438 -12.113281 34.234375 -13.96875 C 36.078125 -15.832031 37 -18.191406 37 -21.046875 C 37 -23.953125 36.050781 -26.335938 34.15625 -28.203125 C 32.269531 -30.066406 29.957031 -31 27.21875 -31 C 24.414062 -31 22.066406 -30.066406 20.171875 -28.203125 Z M 20.171875 -28.203125 "/></g></g></g><g fill="#000000" fill-opacity="1"><g transform="translate(82.190677, 209.624986)"><g><path d="M 4.9375 0 L 4.9375 -70.703125 L 19.484375 -70.703125 L 19.484375 -37.734375 L 19.65625 -37.734375 C 23.4375 -41.515625 27.460938 -43.40625 31.734375 -43.40625 C 33.816406 -43.40625 35.882812 -43.128906 37.9375 -42.578125 C 40 -42.035156 41.972656 -41.1875 43.859375 -40.03125 C 45.753906 -38.882812 47.289062 -37.253906 48.46875 -35.140625 C 49.644531 -33.035156 50.234375 -30.585938 50.234375 -27.796875 L 50.234375 0 L 35.6875 0 L 35.6875 -23.84375 C 35.6875 -26.03125 34.984375 -27.945312 33.578125 -29.59375 C 32.179688 -31.238281 30.363281 -32.0625 28.125 -32.0625 C 25.925781 -32.0625 23.9375 -31.210938 22.15625 -29.515625 C 20.375 -27.816406 19.484375 -25.925781 19.484375 -23.84375 L 19.484375 0 Z M 4.9375 0 "/></g></g></g><g fill="#000000" fill-opacity="1"><g transform="translate(144.680136, 180.749988)"><g><path d="M 7.78125 -14 C 8.957031 -14 9.859375 -13.695312 10.484375 -13.09375 C 11.117188 -12.488281 11.4375 -11.628906 11.4375 -10.515625 C 11.4375 -9.929688 11.300781 -9.390625 11.03125 -8.890625 C 10.769531 -8.398438 10.378906 -8.007812 9.859375 -7.71875 C 9.347656 -7.425781 8.722656 -7.265625 7.984375 -7.234375 L 7.9375 -7.796875 C 8.40625 -7.796875 8.882812 -7.726562 9.375 -7.59375 C 9.875 -7.46875 10.332031 -7.253906 10.75 -6.953125 C 11.164062 -6.660156 11.503906 -6.273438 11.765625 -5.796875 C 12.023438 -5.316406 12.15625 -4.722656 12.15625 -4.015625 C 12.15625 -3.253906 12.03125 -2.617188 11.78125 -2.109375 C 11.53125 -1.597656 11.191406 -1.1875 10.765625 -0.875 C 10.347656 -0.5625 9.878906 -0.335938 9.359375 -0.203125 C 8.847656 -0.0664062 8.332031 0 7.8125 0 L 2.5625 0 C 2.332031 0 2.140625 -0.078125 1.984375 -0.234375 C 1.835938 -0.398438 1.765625 -0.59375 1.765625 -0.8125 L 1.765625 -13.203125 C 1.765625 -13.429688 1.835938 -13.617188 1.984375 -13.765625 C 2.140625 -13.921875 2.332031 -14 2.5625 -14 Z M 7.546875 -12.421875 L 3.234375 -12.421875 L 3.484375 -12.78125 L 3.484375 -7.796875 L 3.265625 -8.0625 L 7.578125 -8.0625 C 8.160156 -8.0625 8.660156 -8.25 9.078125 -8.625 C 9.503906 -9.007812 9.71875 -9.570312 9.71875 -10.3125 C 9.71875 -10.976562 9.523438 -11.492188 9.140625 -11.859375 C 8.753906 -12.234375 8.222656 -12.421875 7.546875 -12.421875 Z M 7.703125 -6.453125 L 3.34375 -6.453125 L 3.484375 -6.59375 L 3.484375 -1.375 L 3.3125 -1.5625 L 7.765625 -1.5625 C 8.546875 -1.5625 9.1875 -1.757812 9.6875 -2.15625 C 10.1875 -2.5625 10.4375 -3.179688 10.4375 -4.015625 C 10.4375 -4.671875 10.300781 -5.175781 10.03125 -5.53125 C 9.769531 -5.882812 9.425781 -6.125 9 -6.25 C 8.582031 -6.382812 8.148438 -6.453125 7.703125 -6.453125 Z M 7.703125 -6.453125 "/></g></g></g><g fill="#000000" fill-opacity="1"><g transform="translate(161.83492, 180.749988)"><g><path d="M 11.6875 -14.015625 C 11.90625 -14.015625 12.085938 -13.9375 12.234375 -13.78125 C 12.378906 -13.625 12.453125 -13.429688 12.453125 -13.203125 L 12.453125 -5.265625 C 12.453125 -4.234375 12.21875 -3.3125 11.75 -2.5 C 11.28125 -1.6875 10.644531 -1.039062 9.84375 -0.5625 C 9.039062 -0.09375 8.132812 0.140625 7.125 0.140625 C 6.09375 0.140625 5.171875 -0.09375 4.359375 -0.5625 C 3.554688 -1.039062 2.921875 -1.6875 2.453125 -2.5 C 1.992188 -3.3125 1.765625 -4.234375 1.765625 -5.265625 L 1.765625 -13.203125 C 1.765625 -13.429688 1.835938 -13.625 1.984375 -13.78125 C 2.140625 -13.9375 2.34375 -14.015625 2.59375 -14.015625 C 2.8125 -14.015625 3.003906 -13.9375 3.171875 -13.78125 C 3.335938 -13.625 3.421875 -13.429688 3.421875 -13.203125 L 3.421875 -5.265625 C 3.421875 -4.523438 3.585938 -3.867188 3.921875 -3.296875 C 4.253906 -2.722656 4.703125 -2.269531 5.265625 -1.9375 C 5.835938 -1.613281 6.457031 -1.453125 7.125 -1.453125 C 7.800781 -1.453125 8.425781 -1.613281 9 -1.9375 C 9.570312 -2.269531 10.035156 -2.722656 10.390625 -3.296875 C 10.742188 -3.867188 10.921875 -4.523438 10.921875 -5.265625 L 10.921875 -13.203125 C 10.921875 -13.429688 10.984375 -13.625 11.109375 -13.78125 C 11.242188 -13.9375 11.4375 -14.015625 11.6875 -14.015625 Z M 11.6875 -14.015625 "/></g></g></g><g fill="#000000" fill-opacity="1"><g transform="translate(180.129261, 180.749988)"><g><path d="M 5.84375 0.203125 C 4.851562 0.203125 3.984375 0.0546875 3.234375 -0.234375 C 2.492188 -0.535156 1.773438 -1.003906 1.078125 -1.640625 C 0.984375 -1.734375 0.90625 -1.835938 0.84375 -1.953125 C 0.789062 -2.066406 0.765625 -2.1875 0.765625 -2.3125 C 0.765625 -2.53125 0.835938 -2.722656 0.984375 -2.890625 C 1.140625 -3.054688 1.332031 -3.140625 1.5625 -3.140625 C 1.75 -3.140625 1.914062 -3.066406 2.0625 -2.921875 C 2.582031 -2.410156 3.144531 -2.019531 3.75 -1.75 C 4.351562 -1.488281 5.035156 -1.359375 5.796875 -1.359375 C 6.390625 -1.359375 6.921875 -1.453125 7.390625 -1.640625 C 7.859375 -1.828125 8.234375 -2.085938 8.515625 -2.421875 C 8.796875 -2.753906 8.9375 -3.140625 8.9375 -3.578125 C 8.925781 -4.109375 8.769531 -4.546875 8.46875 -4.890625 C 8.164062 -5.242188 7.75 -5.535156 7.21875 -5.765625 C 6.695312 -6.003906 6.09375 -6.203125 5.40625 -6.359375 C 4.789062 -6.503906 4.222656 -6.679688 3.703125 -6.890625 C 3.191406 -7.109375 2.75 -7.375 2.375 -7.6875 C 2 -8 1.707031 -8.378906 1.5 -8.828125 C 1.300781 -9.273438 1.203125 -9.800781 1.203125 -10.40625 C 1.203125 -11.164062 1.398438 -11.832031 1.796875 -12.40625 C 2.203125 -12.976562 2.753906 -13.421875 3.453125 -13.734375 C 4.160156 -14.046875 4.976562 -14.203125 5.90625 -14.203125 C 6.71875 -14.203125 7.484375 -14.066406 8.203125 -13.796875 C 8.929688 -13.535156 9.515625 -13.171875 9.953125 -12.703125 C 10.222656 -12.441406 10.359375 -12.191406 10.359375 -11.953125 C 10.359375 -11.753906 10.273438 -11.570312 10.109375 -11.40625 C 9.941406 -11.238281 9.753906 -11.15625 9.546875 -11.15625 C 9.390625 -11.15625 9.253906 -11.207031 9.140625 -11.3125 C 8.910156 -11.570312 8.625 -11.800781 8.28125 -12 C 7.9375 -12.195312 7.554688 -12.351562 7.140625 -12.46875 C 6.722656 -12.59375 6.3125 -12.65625 5.90625 -12.65625 C 5.289062 -12.65625 4.75 -12.566406 4.28125 -12.390625 C 3.8125 -12.210938 3.445312 -11.957031 3.1875 -11.625 C 2.925781 -11.300781 2.796875 -10.910156 2.796875 -10.453125 C 2.796875 -9.953125 2.941406 -9.535156 3.234375 -9.203125 C 3.535156 -8.878906 3.929688 -8.613281 4.421875 -8.40625 C 4.910156 -8.195312 5.457031 -8.015625 6.0625 -7.859375 C 6.71875 -7.703125 7.320312 -7.519531 7.875 -7.3125 C 8.425781 -7.101562 8.898438 -6.84375 9.296875 -6.53125 C 9.703125 -6.226562 10.015625 -5.835938 10.234375 -5.359375 C 10.453125 -4.890625 10.5625 -4.3125 10.5625 -3.625 C 10.5625 -2.882812 10.351562 -2.226562 9.9375 -1.65625 C 9.519531 -1.082031 8.957031 -0.628906 8.25 -0.296875 C 7.539062 0.0234375 6.738281 0.191406 5.84375 0.203125 Z M 5.84375 0.203125 "/></g></g></g><g fill="#000000" fill-opacity="1"><g transform="translate(195.704669, 180.749988)"><g><path d="M 3.421875 -0.8125 C 3.421875 -0.59375 3.335938 -0.398438 3.171875 -0.234375 C 3.003906 -0.078125 2.804688 0 2.578125 0 C 2.328125 0 2.128906 -0.078125 1.984375 -0.234375 C 1.835938 -0.398438 1.765625 -0.59375 1.765625 -0.8125 L 1.765625 -13.1875 C 1.765625 -13.425781 1.84375 -13.617188 2 -13.765625 C 2.15625 -13.921875 2.351562 -14 2.59375 -14 C 2.820312 -14 3.015625 -13.921875 3.171875 -13.765625 C 3.335938 -13.617188 3.421875 -13.425781 3.421875 -13.1875 Z M 3.421875 -0.8125 "/></g></g></g><g fill="#000000" fill-opacity="1"><g transform="translate(204.982565, 180.749988)"><g><path d="M 12.125 -14 C 12.34375 -14 12.519531 -13.925781 12.65625 -13.78125 C 12.789062 -13.644531 12.859375 -13.472656 12.859375 -13.265625 L 12.859375 -0.84375 C 12.859375 -0.582031 12.773438 -0.375 12.609375 -0.21875 C 12.453125 -0.0703125 12.265625 0 12.046875 0 C 11.921875 0 11.796875 -0.0195312 11.671875 -0.0625 C 11.554688 -0.113281 11.46875 -0.179688 11.40625 -0.265625 L 2.84375 -11.578125 L 3.234375 -11.8125 L 3.234375 -0.734375 C 3.234375 -0.523438 3.160156 -0.347656 3.015625 -0.203125 C 2.878906 -0.0664062 2.703125 0 2.484375 0 C 2.265625 0 2.085938 -0.0664062 1.953125 -0.203125 C 1.828125 -0.347656 1.765625 -0.523438 1.765625 -0.734375 L 1.765625 -13.203125 C 1.765625 -13.441406 1.835938 -13.632812 1.984375 -13.78125 C 2.140625 -13.925781 2.328125 -14 2.546875 -14 C 2.660156 -14 2.78125 -13.972656 2.90625 -13.921875 C 3.03125 -13.878906 3.128906 -13.8125 3.203125 -13.71875 L 11.640625 -2.5625 L 11.375 -2.234375 L 11.375 -13.265625 C 11.375 -13.472656 11.441406 -13.644531 11.578125 -13.78125 C 11.722656 -13.925781 11.90625 -14 12.125 -14 Z M 12.125 -14 "/></g></g></g><g fill="#000000" fill-opacity="1"><g transform="translate(223.67674, 180.749988)"><g><path d="M 2.5625 -14 L 9.6875 -14 C 9.90625 -14 10.09375 -13.925781 10.25 -13.78125 C 10.414062 -13.632812 10.5 -13.445312 10.5 -13.21875 C 10.5 -12.988281 10.414062 -12.800781 10.25 -12.65625 C 10.09375 -12.519531 9.90625 -12.453125 9.6875 -12.453125 L 3.234375 -12.453125 L 3.421875 -12.796875 L 3.421875 -7.734375 L 3.21875 -7.953125 L 8.78125 -7.953125 C 9.007812 -7.953125 9.203125 -7.878906 9.359375 -7.734375 C 9.515625 -7.585938 9.59375 -7.40625 9.59375 -7.1875 C 9.59375 -6.957031 9.515625 -6.769531 9.359375 -6.625 C 9.203125 -6.488281 9.007812 -6.421875 8.78125 -6.421875 L 3.28125 -6.421875 L 3.421875 -6.59375 L 3.421875 -1.421875 L 3.296875 -1.5625 L 9.6875 -1.5625 C 9.90625 -1.5625 10.09375 -1.476562 10.25 -1.3125 C 10.414062 -1.15625 10.5 -0.976562 10.5 -0.78125 C 10.5 -0.550781 10.414062 -0.363281 10.25 -0.21875 C 10.09375 -0.0703125 9.90625 0 9.6875 0 L 2.5625 0 C 2.332031 0 2.140625 -0.078125 1.984375 -0.234375 C 1.835938 -0.398438 1.765625 -0.59375 1.765625 -0.8125 L 1.765625 -13.203125 C 1.765625 -13.429688 1.835938 -13.617188 1.984375 -13.765625 C 2.140625 -13.921875 2.332031 -14 2.5625 -14 Z M 2.5625 -14 "/></g></g></g><g fill="#000000" fill-opacity="1"><g transform="translate(239.172176, 180.749988)"><g><path d="M 5.84375 0.203125 C 4.851562 0.203125 3.984375 0.0546875 3.234375 -0.234375 C 2.492188 -0.535156 1.773438 -1.003906 1.078125 -1.640625 C 0.984375 -1.734375 0.90625 -1.835938 0.84375 -1.953125 C 0.789062 -2.066406 0.765625 -2.1875 0.765625 -2.3125 C 0.765625 -2.53125 0.835938 -2.722656 0.984375 -2.890625 C 1.140625 -3.054688 1.332031 -3.140625 1.5625 -3.140625 C 1.75 -3.140625 1.914062 -3.066406 2.0625 -2.921875 C 2.582031 -2.410156 3.144531 -2.019531 3.75 -1.75 C 4.351562 -1.488281 5.035156 -1.359375 5.796875 -1.359375 C 6.390625 -1.359375 6.921875 -1.453125 7.390625 -1.640625 C 7.859375 -1.828125 8.234375 -2.085938 8.515625 -2.421875 C 8.796875 -2.753906 8.9375 -3.140625 8.9375 -3.578125 C 8.925781 -4.109375 8.769531 -4.546875 8.46875 -4.890625 C 8.164062 -5.242188 7.75 -5.535156 7.21875 -5.765625 C 6.695312 -6.003906 6.09375 -6.203125 5.40625 -6.359375 C 4.789062 -6.503906 4.222656 -6.679688 3.703125 -6.890625 C 3.191406 -7.109375 2.75 -7.375 2.375 -7.6875 C 2 -8 1.707031 -8.378906 1.5 -8.828125 C 1.300781 -9.273438 1.203125 -9.800781 1.203125 -10.40625 C 1.203125 -11.164062 1.398438 -11.832031 1.796875 -12.40625 C 2.203125 -12.976562 2.753906 -13.421875 3.453125 -13.734375 C 4.160156 -14.046875 4.976562 -14.203125 5.90625 -14.203125 C 6.71875 -14.203125 7.484375 -14.066406 8.203125 -13.796875 C 8.929688 -13.535156 9.515625 -13.171875 9.953125 -12.703125 C 10.222656 -12.441406 10.359375 -12.191406 10.359375 -11.953125 C 10.359375 -11.753906 10.273438 -11.570312 10.109375 -11.40625 C 9.941406 -11.238281 9.753906 -11.15625 9.546875 -11.15625 C 9.390625 -11.15625 9.253906 -11.207031 9.140625 -11.3125 C 8.910156 -11.570312 8.625 -11.800781 8.28125 -12 C 7.9375 -12.195312 7.554688 -12.351562 7.140625 -12.46875 C 6.722656 -12.59375 6.3125 -12.65625 5.90625 -12.65625 C 5.289062 -12.65625 4.75 -12.566406 4.28125 -12.390625 C 3.8125 -12.210938 3.445312 -11.957031 3.1875 -11.625 C 2.925781 -11.300781 2.796875 -10.910156 2.796875 -10.453125 C 2.796875 -9.953125 2.941406 -9.535156 3.234375 -9.203125 C 3.535156 -8.878906 3.929688 -8.613281 4.421875 -8.40625 C 4.910156 -8.195312 5.457031 -8.015625 6.0625 -7.859375 C 6.71875 -7.703125 7.320312 -7.519531 7.875 -7.3125 C 8.425781 -7.101562 8.898438 -6.84375 9.296875 -6.53125 C 9.703125 -6.226562 10.015625 -5.835938 10.234375 -5.359375 C 10.453125 -4.890625 10.5625 -4.3125 10.5625 -3.625 C 10.5625 -2.882812 10.351562 -2.226562 9.9375 -1.65625 C 9.519531 -1.082031 8.957031 -0.628906 8.25 -0.296875 C 7.539062 0.0234375 6.738281 0.191406 5.84375 0.203125 Z M 5.84375 0.203125 "/></g></g></g><g fill="#000000" fill-opacity="1"><g transform="translate(254.747584, 180.749988)"><g><path d="M 5.84375 0.203125 C 4.851562 0.203125 3.984375 0.0546875 3.234375 -0.234375 C 2.492188 -0.535156 1.773438 -1.003906 1.078125 -1.640625 C 0.984375 -1.734375 0.90625 -1.835938 0.84375 -1.953125 C 0.789062 -2.066406 0.765625 -2.1875 0.765625 -2.3125 C 0.765625 -2.53125 0.835938 -2.722656 0.984375 -2.890625 C 1.140625 -3.054688 1.332031 -3.140625 1.5625 -3.140625 C 1.75 -3.140625 1.914062 -3.066406 2.0625 -2.921875 C 2.582031 -2.410156 3.144531 -2.019531 3.75 -1.75 C 4.351562 -1.488281 5.035156 -1.359375 5.796875 -1.359375 C 6.390625 -1.359375 6.921875 -1.453125 7.390625 -1.640625 C 7.859375 -1.828125 8.234375 -2.085938 8.515625 -2.421875 C 8.796875 -2.753906 8.9375 -3.140625 8.9375 -3.578125 C 8.925781 -4.109375 8.769531 -4.546875 8.46875 -4.890625 C 8.164062 -5.242188 7.75 -5.535156 7.21875 -5.765625 C 6.695312 -6.003906 6.09375 -6.203125 5.40625 -6.359375 C 4.789062 -6.503906 4.222656 -6.679688 3.703125 -6.890625 C 3.191406 -7.109375 2.75 -7.375 2.375 -7.6875 C 2 -8 1.707031 -8.378906 1.5 -8.828125 C 1.300781 -9.273438 1.203125 -9.800781 1.203125 -10.40625 C 1.203125 -11.164062 1.398438 -11.832031 1.796875 -12.40625 C 2.203125 -12.976562 2.753906 -13.421875 3.453125 -13.734375 C 4.160156 -14.046875 4.976562 -14.203125 5.90625 -14.203125 C 6.71875 -14.203125 7.484375 -14.066406 8.203125 -13.796875 C 8.929688 -13.535156 9.515625 -13.171875 9.953125 -12.703125 C 10.222656 -12.441406 10.359375 -12.191406 10.359375 -11.953125 C 10.359375 -11.753906 10.273438 -11.570312 10.109375 -11.40625 C 9.941406 -11.238281 9.753906 -11.15625 9.546875 -11.15625 C 9.390625 -11.15625 9.253906 -11.207031 9.140625 -11.3125 C 8.910156 -11.570312 8.625 -11.800781 8.28125 -12 C 7.9375 -12.195312 7.554688 -12.351562 7.140625 -12.46875 C 6.722656 -12.59375 6.3125 -12.65625 5.90625 -12.65625 C 5.289062 -12.65625 4.75 -12.566406 4.28125 -12.390625 C 3.8125 -12.210938 3.445312 -11.957031 3.1875 -11.625 C 2.925781 -11.300781 2.796875 -10.910156 2.796875 -10.453125 C 2.796875 -9.953125 2.941406 -9.535156 3.234375 -9.203125 C 3.535156 -8.878906 3.929688 -8.613281 4.421875 -8.40625 C 4.910156 -8.195312 5.457031 -8.015625 6.0625 -7.859375 C 6.71875 -7.703125 7.320312 -7.519531 7.875 -7.3125 C 8.425781 -7.101562 8.898438 -6.84375 9.296875 -6.53125 C 9.703125 -6.226562 10.015625 -5.835938 10.234375 -5.359375 C 10.453125 -4.890625 10.5625 -4.3125 10.5625 -3.625 C 10.5625 -2.882812 10.351562 -2.226562 9.9375 -1.65625 C 9.519531 -1.082031 8.957031 -0.628906 8.25 -0.296875 C 7.539062 0.0234375 6.738281 0.191406 5.84375 0.203125 Z M 5.84375 0.203125 "/></g></g></g><g fill="#000000" fill-opacity="1"><g transform="translate(144.680136, 208.499986)"><g><path d="M 14.359375 -7 C 14.359375 -5.945312 14.191406 -4.984375 13.859375 -4.109375 C 13.535156 -3.234375 13.070312 -2.472656 12.46875 -1.828125 C 11.875 -1.179688 11.164062 -0.679688 10.34375 -0.328125 C 9.53125 0.0234375 8.632812 0.203125 7.65625 0.203125 C 6.6875 0.203125 5.789062 0.0234375 4.96875 -0.328125 C 4.144531 -0.679688 3.429688 -1.179688 2.828125 -1.828125 C 2.234375 -2.472656 1.769531 -3.234375 1.4375 -4.109375 C 1.113281 -4.984375 0.953125 -5.945312 0.953125 -7 C 0.953125 -8.050781 1.113281 -9.015625 1.4375 -9.890625 C 1.769531 -10.765625 2.234375 -11.523438 2.828125 -12.171875 C 3.429688 -12.816406 4.144531 -13.316406 4.96875 -13.671875 C 5.789062 -14.023438 6.6875 -14.203125 7.65625 -14.203125 C 8.632812 -14.203125 9.53125 -14.023438 10.34375 -13.671875 C 11.164062 -13.316406 11.875 -12.816406 12.46875 -12.171875 C 13.070312 -11.523438 13.535156 -10.765625 13.859375 -9.890625 C 14.191406 -9.015625 14.359375 -8.050781 14.359375 -7 Z M 13.078125 -7 C 13.078125 -8.1875 12.847656 -9.226562 12.390625 -10.125 C 11.929688 -11.03125 11.296875 -11.734375 10.484375 -12.234375 C 9.671875 -12.742188 8.726562 -13 7.65625 -13 C 6.601562 -13 5.664062 -12.742188 4.84375 -12.234375 C 4.03125 -11.734375 3.390625 -11.03125 2.921875 -10.125 C 2.460938 -9.226562 2.234375 -8.1875 2.234375 -7 C 2.234375 -5.8125 2.460938 -4.765625 2.921875 -3.859375 C 3.390625 -2.960938 4.03125 -2.257812 4.84375 -1.75 C 5.664062 -1.25 6.601562 -1 7.65625 -1 C 8.726562 -1 9.671875 -1.25 10.484375 -1.75 C 11.296875 -2.257812 11.929688 -2.960938 12.390625 -3.859375 C 12.847656 -4.765625 13.078125 -5.8125 13.078125 -7 Z M 13.078125 -7 "/></g></g></g><g fill="#000000" fill-opacity="1"><g transform="translate(164.094029, 208.499986)"><g><path d="M 11.78125 -14 C 11.96875 -14 12.113281 -13.941406 12.21875 -13.828125 C 12.320312 -13.710938 12.375 -13.570312 12.375 -13.40625 L 12.375 -5.125 C 12.375 -4.132812 12.140625 -3.238281 11.671875 -2.4375 C 11.210938 -1.632812 10.585938 -0.992188 9.796875 -0.515625 C 9.015625 -0.046875 8.128906 0.1875 7.140625 0.1875 C 6.148438 0.1875 5.257812 -0.046875 4.46875 -0.515625 C 3.675781 -0.992188 3.046875 -1.632812 2.578125 -2.4375 C 2.109375 -3.238281 1.875 -4.132812 1.875 -5.125 L 1.875 -13.40625 C 1.875 -13.570312 1.929688 -13.710938 2.046875 -13.828125 C 2.160156 -13.941406 2.316406 -14 2.515625 -14 C 2.679688 -14 2.820312 -13.941406 2.9375 -13.828125 C 3.0625 -13.710938 3.125 -13.570312 3.125 -13.40625 L 3.125 -5.125 C 3.125 -4.34375 3.304688 -3.644531 3.671875 -3.03125 C 4.035156 -2.425781 4.523438 -1.9375 5.140625 -1.5625 C 5.753906 -1.195312 6.421875 -1.015625 7.140625 -1.015625 C 7.890625 -1.015625 8.566406 -1.195312 9.171875 -1.5625 C 9.785156 -1.9375 10.273438 -2.425781 10.640625 -3.03125 C 11.015625 -3.644531 11.203125 -4.34375 11.203125 -5.125 L 11.203125 -13.40625 C 11.203125 -13.570312 11.253906 -13.710938 11.359375 -13.828125 C 11.460938 -13.941406 11.601562 -14 11.78125 -14 Z M 11.78125 -14 "/></g></g></g><g fill="#000000" fill-opacity="1"><g transform="translate(182.448337, 208.499986)"><g><path d="M 6.046875 0 C 5.859375 0 5.707031 -0.0546875 5.59375 -0.171875 C 5.476562 -0.296875 5.421875 -0.4375 5.421875 -0.59375 L 5.421875 -13.34375 L 6.65625 -13.34375 L 6.65625 -0.59375 C 6.65625 -0.4375 6.59375 -0.296875 6.46875 -0.171875 C 6.351562 -0.0546875 6.210938 0 6.046875 0 Z M 1.28125 -12.859375 C 1.125 -12.859375 0.984375 -12.910156 0.859375 -13.015625 C 0.742188 -13.128906 0.6875 -13.269531 0.6875 -13.4375 C 0.6875 -13.601562 0.742188 -13.738281 0.859375 -13.84375 C 0.984375 -13.945312 1.125 -14 1.28125 -14 L 10.796875 -14 C 10.960938 -14 11.101562 -13.945312 11.21875 -13.84375 C 11.34375 -13.738281 11.40625 -13.597656 11.40625 -13.421875 C 11.40625 -13.242188 11.34375 -13.101562 11.21875 -13 C 11.101562 -12.90625 10.960938 -12.859375 10.796875 -12.859375 Z M 1.28125 -12.859375 "/></g></g></g><g fill="#000000" fill-opacity="1"><g transform="translate(198.623507, 208.499986)"><g><path d="M 5.734375 0.203125 C 4.722656 0.210938 3.84375 0.0507812 3.09375 -0.28125 C 2.351562 -0.613281 1.640625 -1.113281 0.953125 -1.78125 C 0.890625 -1.832031 0.832031 -1.894531 0.78125 -1.96875 C 0.738281 -2.050781 0.71875 -2.148438 0.71875 -2.265625 C 0.71875 -2.421875 0.78125 -2.566406 0.90625 -2.703125 C 1.03125 -2.835938 1.175781 -2.90625 1.34375 -2.90625 C 1.5 -2.90625 1.644531 -2.835938 1.78125 -2.703125 C 2.300781 -2.140625 2.890625 -1.710938 3.546875 -1.421875 C 4.210938 -1.128906 4.925781 -0.984375 5.6875 -0.984375 C 6.320312 -0.984375 6.890625 -1.082031 7.390625 -1.28125 C 7.890625 -1.476562 8.285156 -1.765625 8.578125 -2.140625 C 8.867188 -2.515625 9.015625 -2.945312 9.015625 -3.4375 C 9.015625 -4.050781 8.847656 -4.546875 8.515625 -4.921875 C 8.179688 -5.304688 7.738281 -5.617188 7.1875 -5.859375 C 6.644531 -6.109375 6.039062 -6.335938 5.375 -6.546875 C 4.832031 -6.703125 4.3125 -6.882812 3.8125 -7.09375 C 3.320312 -7.300781 2.882812 -7.550781 2.5 -7.84375 C 2.113281 -8.144531 1.8125 -8.515625 1.59375 -8.953125 C 1.382812 -9.398438 1.28125 -9.9375 1.28125 -10.5625 C 1.28125 -11.269531 1.46875 -11.894531 1.84375 -12.4375 C 2.21875 -12.988281 2.742188 -13.421875 3.421875 -13.734375 C 4.109375 -14.046875 4.90625 -14.203125 5.8125 -14.203125 C 6.601562 -14.203125 7.363281 -14.066406 8.09375 -13.796875 C 8.820312 -13.535156 9.394531 -13.144531 9.8125 -12.625 C 10.019531 -12.40625 10.125 -12.210938 10.125 -12.046875 C 10.125 -11.910156 10.054688 -11.773438 9.921875 -11.640625 C 9.785156 -11.503906 9.640625 -11.4375 9.484375 -11.4375 C 9.347656 -11.4375 9.234375 -11.484375 9.140625 -11.578125 C 8.910156 -11.859375 8.625 -12.109375 8.28125 -12.328125 C 7.9375 -12.546875 7.550781 -12.710938 7.125 -12.828125 C 6.707031 -12.953125 6.269531 -13.015625 5.8125 -13.015625 C 5.1875 -13.015625 4.625 -12.914062 4.125 -12.71875 C 3.625 -12.53125 3.226562 -12.253906 2.9375 -11.890625 C 2.65625 -11.535156 2.515625 -11.101562 2.515625 -10.59375 C 2.515625 -10.039062 2.675781 -9.582031 3 -9.21875 C 3.320312 -8.863281 3.742188 -8.566406 4.265625 -8.328125 C 4.785156 -8.097656 5.335938 -7.882812 5.921875 -7.6875 C 6.492188 -7.519531 7.039062 -7.332031 7.5625 -7.125 C 8.09375 -6.914062 8.5625 -6.660156 8.96875 -6.359375 C 9.375 -6.054688 9.691406 -5.671875 9.921875 -5.203125 C 10.160156 -4.734375 10.28125 -4.144531 10.28125 -3.4375 C 10.28125 -2.757812 10.085938 -2.144531 9.703125 -1.59375 C 9.316406 -1.050781 8.785156 -0.617188 8.109375 -0.296875 C 7.429688 0.0234375 6.640625 0.191406 5.734375 0.203125 Z M 5.734375 0.203125 "/></g></g></g><g fill="#000000" fill-opacity="1"><g transform="translate(213.959013, 208.499986)"><g><path d="M 14.359375 -7 C 14.359375 -5.945312 14.191406 -4.984375 13.859375 -4.109375 C 13.535156 -3.234375 13.070312 -2.472656 12.46875 -1.828125 C 11.875 -1.179688 11.164062 -0.679688 10.34375 -0.328125 C 9.53125 0.0234375 8.632812 0.203125 7.65625 0.203125 C 6.6875 0.203125 5.789062 0.0234375 4.96875 -0.328125 C 4.144531 -0.679688 3.429688 -1.179688 2.828125 -1.828125 C 2.234375 -2.472656 1.769531 -3.234375 1.4375 -4.109375 C 1.113281 -4.984375 0.953125 -5.945312 0.953125 -7 C 0.953125 -8.050781 1.113281 -9.015625 1.4375 -9.890625 C 1.769531 -10.765625 2.234375 -11.523438 2.828125 -12.171875 C 3.429688 -12.816406 4.144531 -13.316406 4.96875 -13.671875 C 5.789062 -14.023438 6.6875 -14.203125 7.65625 -14.203125 C 8.632812 -14.203125 9.53125 -14.023438 10.34375 -13.671875 C 11.164062 -13.316406 11.875 -12.816406 12.46875 -12.171875 C 13.070312 -11.523438 13.535156 -10.765625 13.859375 -9.890625 C 14.191406 -9.015625 14.359375 -8.050781 14.359375 -7 Z M 13.078125 -7 C 13.078125 -8.1875 12.847656 -9.226562 12.390625 -10.125 C 11.929688 -11.03125 11.296875 -11.734375 10.484375 -12.234375 C 9.671875 -12.742188 8.726562 -13 7.65625 -13 C 6.601562 -13 5.664062 -12.742188 4.84375 -12.234375 C 4.03125 -11.734375 3.390625 -11.03125 2.921875 -10.125 C 2.460938 -9.226562 2.234375 -8.1875 2.234375 -7 C 2.234375 -5.8125 2.460938 -4.765625 2.921875 -3.859375 C 3.390625 -2.960938 4.03125 -2.257812 4.84375 -1.75 C 5.664062 -1.25 6.601562 -1 7.65625 -1 C 8.726562 -1 9.671875 -1.25 10.484375 -1.75 C 11.296875 -2.257812 11.929688 -2.960938 12.390625 -3.859375 C 12.847656 -4.765625 13.078125 -5.8125 13.078125 -7 Z M 13.078125 -7 "/></g></g></g><g fill="#000000" fill-opacity="1"><g transform="translate(233.372906, 208.499986)"><g><path d="M 11.78125 -14 C 11.96875 -14 12.113281 -13.941406 12.21875 -13.828125 C 12.320312 -13.710938 12.375 -13.570312 12.375 -13.40625 L 12.375 -5.125 C 12.375 -4.132812 12.140625 -3.238281 11.671875 -2.4375 C 11.210938 -1.632812 10.585938 -0.992188 9.796875 -0.515625 C 9.015625 -0.046875 8.128906 0.1875 7.140625 0.1875 C 6.148438 0.1875 5.257812 -0.046875 4.46875 -0.515625 C 3.675781 -0.992188 3.046875 -1.632812 2.578125 -2.4375 C 2.109375 -3.238281 1.875 -4.132812 1.875 -5.125 L 1.875 -13.40625 C 1.875 -13.570312 1.929688 -13.710938 2.046875 -13.828125 C 2.160156 -13.941406 2.316406 -14 2.515625 -14 C 2.679688 -14 2.820312 -13.941406 2.9375 -13.828125 C 3.0625 -13.710938 3.125 -13.570312 3.125 -13.40625 L 3.125 -5.125 C 3.125 -4.34375 3.304688 -3.644531 3.671875 -3.03125 C 4.035156 -2.425781 4.523438 -1.9375 5.140625 -1.5625 C 5.753906 -1.195312 6.421875 -1.015625 7.140625 -1.015625 C 7.890625 -1.015625 8.566406 -1.195312 9.171875 -1.5625 C 9.785156 -1.9375 10.273438 -2.425781 10.640625 -3.03125 C 11.015625 -3.644531 11.203125 -4.34375 11.203125 -5.125 L 11.203125 -13.40625 C 11.203125 -13.570312 11.253906 -13.710938 11.359375 -13.828125 C 11.460938 -13.941406 11.601562 -14 11.78125 -14 Z M 11.78125 -14 "/></g></g></g><g fill="#000000" fill-opacity="1"><g transform="translate(251.727214, 208.499986)"><g><path d="M 2.5625 0 C 2.363281 0 2.195312 -0.0546875 2.0625 -0.171875 C 1.9375 -0.296875 1.875 -0.4375 1.875 -0.59375 L 1.875 -13.40625 C 1.875 -13.5625 1.929688 -13.695312 2.046875 -13.8125 C 2.171875 -13.9375 2.316406 -14 2.484375 -14 L 7.875 -14 C 8.632812 -14 9.3125 -13.832031 9.90625 -13.5 C 10.507812 -13.175781 10.984375 -12.726562 11.328125 -12.15625 C 11.671875 -11.582031 11.84375 -10.9375 11.84375 -10.21875 C 11.84375 -9.632812 11.734375 -9.09375 11.515625 -8.59375 C 11.304688 -8.101562 11.007812 -7.6875 10.625 -7.34375 C 10.238281 -7.007812 9.800781 -6.757812 9.3125 -6.59375 L 8.625 -6.8125 C 9.113281 -6.78125 9.570312 -6.625 10 -6.34375 C 10.425781 -6.070312 10.769531 -5.695312 11.03125 -5.21875 C 11.289062 -4.75 11.425781 -4.179688 11.4375 -3.515625 C 11.445312 -2.941406 11.472656 -2.492188 11.515625 -2.171875 C 11.566406 -1.859375 11.640625 -1.617188 11.734375 -1.453125 C 11.828125 -1.296875 11.945312 -1.171875 12.09375 -1.078125 C 12.226562 -0.992188 12.316406 -0.878906 12.359375 -0.734375 C 12.410156 -0.585938 12.394531 -0.445312 12.3125 -0.3125 C 12.257812 -0.207031 12.179688 -0.128906 12.078125 -0.078125 C 11.984375 -0.0351562 11.882812 -0.015625 11.78125 -0.015625 C 11.675781 -0.015625 11.566406 -0.0390625 11.453125 -0.09375 C 11.273438 -0.207031 11.085938 -0.375 10.890625 -0.59375 C 10.691406 -0.820312 10.53125 -1.15625 10.40625 -1.59375 C 10.28125 -2.039062 10.21875 -2.65625 10.21875 -3.4375 C 10.21875 -3.957031 10.132812 -4.382812 9.96875 -4.71875 C 9.800781 -5.050781 9.585938 -5.304688 9.328125 -5.484375 C 9.066406 -5.671875 8.78125 -5.800781 8.46875 -5.875 C 8.15625 -5.945312 7.859375 -5.984375 7.578125 -5.984375 L 2.921875 -5.984375 L 3.140625 -6.265625 L 3.140625 -0.59375 C 3.140625 -0.4375 3.082031 -0.296875 2.96875 -0.171875 C 2.863281 -0.0546875 2.726562 0 2.5625 0 Z M 2.921875 -7.078125 L 7.9375 -7.078125 C 8.394531 -7.117188 8.820312 -7.269531 9.21875 -7.53125 C 9.613281 -7.789062 9.9375 -8.144531 10.1875 -8.59375 C 10.4375 -9.050781 10.5625 -9.582031 10.5625 -10.1875 C 10.5625 -10.9375 10.300781 -11.5625 9.78125 -12.0625 C 9.269531 -12.5625 8.601562 -12.8125 7.78125 -12.8125 L 3 -12.8125 L 3.140625 -13.09375 L 3.140625 -6.796875 Z M 2.921875 -7.078125 "/></g></g></g><g fill="#000000" fill-opacity="1"><g transform="translate(269.221864, 208.499986)"><g><path d="M 12.09375 -12.953125 C 12.257812 -12.847656 12.351562 -12.710938 12.375 -12.546875 C 12.40625 -12.378906 12.367188 -12.21875 12.265625 -12.0625 C 12.171875 -11.9375 12.050781 -11.867188 11.90625 -11.859375 C 11.757812 -11.847656 11.617188 -11.875 11.484375 -11.9375 C 10.972656 -12.269531 10.425781 -12.53125 9.84375 -12.71875 C 9.269531 -12.90625 8.648438 -13 7.984375 -13 C 7.171875 -13 6.410156 -12.851562 5.703125 -12.5625 C 5.003906 -12.28125 4.394531 -11.867188 3.875 -11.328125 C 3.351562 -10.785156 2.945312 -10.144531 2.65625 -9.40625 C 2.375 -8.675781 2.234375 -7.875 2.234375 -7 C 2.234375 -6.09375 2.378906 -5.269531 2.671875 -4.53125 C 2.972656 -3.789062 3.382812 -3.148438 3.90625 -2.609375 C 4.4375 -2.078125 5.046875 -1.671875 5.734375 -1.390625 C 6.429688 -1.117188 7.179688 -0.984375 7.984375 -0.984375 C 8.628906 -0.984375 9.242188 -1.078125 9.828125 -1.265625 C 10.410156 -1.453125 10.953125 -1.703125 11.453125 -2.015625 C 11.585938 -2.097656 11.734375 -2.128906 11.890625 -2.109375 C 12.046875 -2.085938 12.171875 -2.007812 12.265625 -1.875 C 12.378906 -1.726562 12.421875 -1.570312 12.390625 -1.40625 C 12.359375 -1.238281 12.269531 -1.109375 12.125 -1.015625 C 11.789062 -0.804688 11.394531 -0.609375 10.9375 -0.421875 C 10.488281 -0.234375 10.007812 -0.0820312 9.5 0.03125 C 8.988281 0.144531 8.484375 0.203125 7.984375 0.203125 C 7.023438 0.203125 6.125 0.03125 5.28125 -0.3125 C 4.4375 -0.664062 3.6875 -1.15625 3.03125 -1.78125 C 2.382812 -2.414062 1.875 -3.171875 1.5 -4.046875 C 1.132812 -4.929688 0.953125 -5.914062 0.953125 -7 C 0.953125 -8.039062 1.132812 -9 1.5 -9.875 C 1.863281 -10.75 2.363281 -11.503906 3 -12.140625 C 3.632812 -12.773438 4.378906 -13.273438 5.234375 -13.640625 C 6.085938 -14.003906 7.003906 -14.1875 7.984375 -14.1875 C 8.742188 -14.1875 9.472656 -14.078125 10.171875 -13.859375 C 10.878906 -13.648438 11.519531 -13.347656 12.09375 -12.953125 Z M 12.09375 -12.953125 "/></g></g></g><g fill="#000000" fill-opacity="1"><g transform="translate(286.376648, 208.499986)"><g><path d="M 3.140625 -0.625 C 3.128906 -0.445312 3.054688 -0.296875 2.921875 -0.171875 C 2.796875 -0.0546875 2.65625 0 2.5 0 C 2.3125 0 2.160156 -0.0546875 2.046875 -0.171875 C 1.929688 -0.296875 1.875 -0.445312 1.875 -0.625 L 1.875 -13.375 C 1.875 -13.550781 1.929688 -13.695312 2.046875 -13.8125 C 2.171875 -13.9375 2.328125 -14 2.515625 -14 C 2.679688 -14 2.828125 -13.9375 2.953125 -13.8125 C 3.078125 -13.695312 3.140625 -13.550781 3.140625 -13.375 Z M 3.140625 -0.625 "/></g></g></g><g fill="#000000" fill-opacity="1"><g transform="translate(295.474609, 208.499986)"><g><path d="M 12.125 -14 C 12.289062 -14 12.425781 -13.945312 12.53125 -13.84375 C 12.632812 -13.738281 12.6875 -13.601562 12.6875 -13.4375 L 12.6875 -0.640625 C 12.6875 -0.441406 12.617188 -0.285156 12.484375 -0.171875 C 12.359375 -0.0546875 12.21875 0 12.0625 0 C 11.976562 0 11.890625 -0.015625 11.796875 -0.046875 C 11.703125 -0.078125 11.628906 -0.128906 11.578125 -0.203125 L 2.65625 -12.21875 L 3 -12.40625 L 3 -0.546875 C 3 -0.390625 2.945312 -0.257812 2.84375 -0.15625 C 2.738281 -0.0507812 2.601562 0 2.4375 0 C 2.269531 0 2.132812 -0.0507812 2.03125 -0.15625 C 1.925781 -0.257812 1.875 -0.390625 1.875 -0.546875 L 1.875 -13.40625 C 1.875 -13.601562 1.929688 -13.75 2.046875 -13.84375 C 2.171875 -13.945312 2.304688 -14 2.453125 -14 C 2.535156 -14 2.625 -13.984375 2.71875 -13.953125 C 2.8125 -13.921875 2.882812 -13.863281 2.9375 -13.78125 L 11.765625 -1.90625 L 11.5625 -1.546875 L 11.5625 -13.4375 C 11.5625 -13.601562 11.617188 -13.738281 11.734375 -13.84375 C 11.847656 -13.945312 11.976562 -14 12.125 -14 Z M 12.125 -14 "/></g></g></g><g fill="#000000" fill-opacity="1"><g transform="translate(314.12881, 208.499986)"><g><path d="M 8.15625 0.203125 C 7.132812 0.203125 6.179688 0.0234375 5.296875 -0.328125 C 4.421875 -0.691406 3.660156 -1.195312 3.015625 -1.84375 C 2.367188 -2.488281 1.863281 -3.25 1.5 -4.125 C 1.132812 -5.007812 0.953125 -5.96875 0.953125 -7 C 0.953125 -8.03125 1.132812 -8.984375 1.5 -9.859375 C 1.863281 -10.742188 2.367188 -11.507812 3.015625 -12.15625 C 3.660156 -12.800781 4.421875 -13.300781 5.296875 -13.65625 C 6.179688 -14.019531 7.132812 -14.203125 8.15625 -14.203125 C 8.863281 -14.203125 9.546875 -14.117188 10.203125 -13.953125 C 10.867188 -13.785156 11.460938 -13.535156 11.984375 -13.203125 C 12.078125 -13.128906 12.144531 -13.050781 12.1875 -12.96875 C 12.238281 -12.882812 12.265625 -12.796875 12.265625 -12.703125 C 12.265625 -12.515625 12.203125 -12.363281 12.078125 -12.25 C 11.960938 -12.132812 11.835938 -12.078125 11.703125 -12.078125 C 11.628906 -12.078125 11.5625 -12.085938 11.5 -12.109375 C 11.445312 -12.128906 11.394531 -12.15625 11.34375 -12.1875 C 10.882812 -12.4375 10.390625 -12.632812 9.859375 -12.78125 C 9.328125 -12.925781 8.757812 -13 8.15625 -13 C 7.007812 -13 5.988281 -12.738281 5.09375 -12.21875 C 4.207031 -11.695312 3.507812 -10.984375 3 -10.078125 C 2.488281 -9.171875 2.234375 -8.144531 2.234375 -7 C 2.234375 -5.851562 2.488281 -4.828125 3 -3.921875 C 3.507812 -3.015625 4.207031 -2.300781 5.09375 -1.78125 C 5.988281 -1.257812 7.007812 -1 8.15625 -1 C 8.757812 -1 9.363281 -1.082031 9.96875 -1.25 C 10.570312 -1.425781 11.097656 -1.660156 11.546875 -1.953125 L 11.4375 -1.546875 L 11.4375 -6.140625 L 11.734375 -5.859375 L 8.28125 -5.859375 C 8.101562 -5.859375 7.953125 -5.914062 7.828125 -6.03125 C 7.710938 -6.15625 7.65625 -6.296875 7.65625 -6.453125 C 7.65625 -6.640625 7.710938 -6.785156 7.828125 -6.890625 C 7.953125 -7.003906 8.101562 -7.0625 8.28125 -7.0625 L 12.09375 -7.0625 C 12.269531 -7.0625 12.414062 -7.003906 12.53125 -6.890625 C 12.644531 -6.773438 12.703125 -6.628906 12.703125 -6.453125 L 12.703125 -1.640625 C 12.703125 -1.535156 12.675781 -1.4375 12.625 -1.34375 C 12.570312 -1.25 12.5 -1.164062 12.40625 -1.09375 C 11.8125 -0.695312 11.148438 -0.378906 10.421875 -0.140625 C 9.703125 0.0859375 8.945312 0.203125 8.15625 0.203125 Z M 8.15625 0.203125 "/></g></g></g></svg>